# xmcd
#
# Track frame offsets: 
#        150
#        17955
#        31042
#        46855
#        62955
#        79381
#        93005
#        109649
#        122618
#        139762
#        157610
#        169933
#        187782
#        205196
#        223750
#
# Disc length: 3226 seconds
#
# Revision: 0
# Processed by: cddbd v1.5.2PL0 Copyright (c) Steve Scherf et al.
# Submitted via: ExactAudioCopy v0.99pb5
#
DISCID=bd0c980f
DTITLE=Fred Knobloch - Hear Here
DYEAR=2015
DGENRE=Country
TTITLE0=Heading South
TTITLE1=I Like It Here
TTITLE2=You're Mine
TTITLE3=Wishing Well
TTITLE4=Ever
TTITLE5=Chimneyville
TTITLE6=Dark And Twangy Night
TTITLE7=Stay September
TTITLE8=Girl At The End Of The Song
TTITLE9=I Love Your Love
TTITLE10=I Never Left You At All
TTITLE11=Maria's Eyes
TTITLE12=Always Will
TTITLE13=I Left My Heart Behind
TTITLE14=My Ship
EXTD=
EXTT0=
EXTT1=
EXTT2=
EXTT3=
EXTT4=
EXTT5=
EXTT6=
EXTT7=
EXTT8=
EXTT9=
EXTT10=
EXTT11=
EXTT12=
EXTT13=
EXTT14=
PLAYORDER=
